<svg xmlns="http://www.w3.org/2000/svg" viewBox="0 0 274.55 81"><defs><style>.cls-1{fill:#fff;}.cls-2{fill:none;stroke:#fff;stroke-miterlimit:10;stroke-width:6px;}</style></defs><g id="Слой_2" data-name="Слой 2"><g id="Слой_1-2" data-name="Слой 1"><path class="cls-1" d="M47.73,64.92c-3,1.5-9,3-16.63,3C13.35,67.91,0,56.7,0,36.06,0,16.35,13.35,3,32.88,3c7.84,0,12.77,1.68,14.93,2.8l-2,6.63A29.68,29.68,0,0,0,33.12,9.82c-14.75,0-24.56,9.43-24.56,26,0,15.41,8.87,25.31,24.16,25.31A32.7,32.7,0,0,0,46,58.48Z"/><path class="cls-1" d="M85.08,21.8v6.54H71V67H62.85V28.31H48.75V21.8Z"/><path class="cls-1" d="M132,44c0,16.71-11.58,24-22.51,24-12.24,0-21.67-9-21.67-23.27,0-15.13,9.9-24,22.42-24C123.18,20.74,132,30.17,132,44Zm-35.87.47c0,9.9,5.7,17.36,13.74,17.36,7.84,0,13.73-7.37,13.73-17.55,0-7.66-3.84-17.37-13.55-17.37S96.09,35.88,96.09,44.47Z"/><path class="cls-1" d="M177.55,21.76V67h-8.22V28.28h-21V66.93h-8.12V21.76Z"/><circle class="cls-2" cx="234.05" cy="40.5" r="37.5" transform="translate(156.58 265.04) rotate(-80.78)"/><line class="cls-2" x1="207.81" y1="13.73" x2="261.41" y2="66.14"/></g></g></svg>